<?xml version="1.0" encoding="utf-8" standalone="no"?>
<!DOCTYPE svg PUBLIC "-//W3C//DTD SVG 1.1//EN"
  "http://www.w3.org/Graphics/SVG/1.1/DTD/svg11.dtd">
<!-- Created with matplotlib (https://matplotlib.org/) -->
<svg height="425.27625pt" version="1.1" viewBox="0 0 710.0875 425.27625" width="710.0875pt" xmlns="http://www.w3.org/2000/svg" xmlns:xlink="http://www.w3.org/1999/xlink">
 <metadata>
  <rdf:RDF xmlns:cc="http://creativecommons.org/ns#" xmlns:dc="http://purl.org/dc/elements/1.1/" xmlns:rdf="http://www.w3.org/1999/02/22-rdf-syntax-ns#">
   <cc:Work>
    <dc:type rdf:resource="http://purl.org/dc/dcmitype/StillImage"/>
    <dc:date>2021-06-24T14:28:52.055687</dc:date>
    <dc:format>image/svg+xml</dc:format>
    <dc:creator>
     <cc:Agent>
      <dc:title>Matplotlib v3.3.4, https://matplotlib.org/</dc:title>
     </cc:Agent>
    </dc:creator>
   </cc:Work>
  </rdf:RDF>
 </metadata>
 <defs>
  <style type="text/css">*{stroke-linecap:butt;stroke-linejoin:round;}</style>
 </defs>
 <g id="figure_1">
  <g id="patch_1">
   <path d="M 0 425.27625 
L 710.0875 425.27625 
L 710.0875 0 
L 0 0 
z
" style="fill:none;"/>
  </g>
  <g id="axes_1">
   <g id="patch_2">
    <path d="M 33.2875 387.72 
L 702.8875 387.72 
L 702.8875 7.2 
L 33.2875 7.2 
z
" style="fill:#ffffff;"/>
   </g>
   <g id="matplotlib.axis_1">
    <g id="xtick_1">
     <g id="line2d_1">
      <defs>
       <path d="M 0 0 
L 0 3.5 
" id="mc55625508f" style="stroke:#000000;stroke-width:0.8;"/>
      </defs>
      <g>
       <use style="stroke:#000000;stroke-width:0.8;" x="33.2875" xlink:href="#mc55625508f" y="387.72"/>
      </g>
     </g>
     <g id="text_1">
      <!-- 1949 -->
      <g transform="translate(20.5625 402.318438)scale(0.1 -0.1)">
       <defs>
        <path d="M 12.40625 8.296875 
L 28.515625 8.296875 
L 28.515625 63.921875 
L 10.984375 60.40625 
L 10.984375 69.390625 
L 28.421875 72.90625 
L 38.28125 72.90625 
L 38.28125 8.296875 
L 54.390625 8.296875 
L 54.390625 0 
L 12.40625 0 
z
" id="DejaVuSans-49"/>
        <path d="M 10.984375 1.515625 
L 10.984375 10.5 
Q 14.703125 8.734375 18.5 7.8125 
Q 22.3125 6.890625 25.984375 6.890625 
Q 35.75 6.890625 40.890625 13.453125 
Q 46.046875 20.015625 46.78125 33.40625 
Q 43.953125 29.203125 39.59375 26.953125 
Q 35.25 24.703125 29.984375 24.703125 
Q 19.046875 24.703125 12.671875 31.3125 
Q 6.296875 37.9375 6.296875 49.421875 
Q 6.296875 60.640625 12.9375 67.421875 
Q 19.578125 74.21875 30.609375 74.21875 
Q 43.265625 74.21875 49.921875 64.515625 
Q 56.59375 54.828125 56.59375 36.375 
Q 56.59375 19.140625 48.40625 8.859375 
Q 40.234375 -1.421875 26.421875 -1.421875 
Q 22.703125 -1.421875 18.890625 -0.6875 
Q 15.09375 0.046875 10.984375 1.515625 
z
M 30.609375 32.421875 
Q 37.25 32.421875 41.125 36.953125 
Q 45.015625 41.5 45.015625 49.421875 
Q 45.015625 57.28125 41.125 61.84375 
Q 37.25 66.40625 30.609375 66.40625 
Q 23.96875 66.40625 20.09375 61.84375 
Q 16.21875 57.28125 16.21875 49.421875 
Q 16.21875 41.5 20.09375 36.953125 
Q 23.96875 32.421875 30.609375 32.421875 
z
" id="DejaVuSans-57"/>
        <path d="M 37.796875 64.3125 
L 12.890625 25.390625 
L 37.796875 25.390625 
z
M 35.203125 72.90625 
L 47.609375 72.90625 
L 47.609375 25.390625 
L 58.015625 25.390625 
L 58.015625 17.1875 
L 47.609375 17.1875 
L 47.609375 0 
L 37.796875 0 
L 37.796875 17.1875 
L 4.890625 17.1875 
L 4.890625 26.703125 
z
" id="DejaVuSans-52"/>
       </defs>
       <use xlink:href="#DejaVuSans-49"/>
       <use x="63.623047" xlink:href="#DejaVuSans-57"/>
       <use x="127.246094" xlink:href="#DejaVuSans-52"/>
       <use x="190.869141" xlink:href="#DejaVuSans-57"/>
      </g>
     </g>
    </g>
    <g id="xtick_2">
     <g id="line2d_2">
      <g>
       <use style="stroke:#000000;stroke-width:0.8;" x="145.66792" xlink:href="#mc55625508f" y="387.72"/>
      </g>
     </g>
     <g id="text_2">
      <!-- 1951 -->
      <g transform="translate(132.94292 402.318438)scale(0.1 -0.1)">
       <defs>
        <path d="M 10.796875 72.90625 
L 49.515625 72.90625 
L 49.515625 64.59375 
L 19.828125 64.59375 
L 19.828125 46.734375 
Q 21.96875 47.46875 24.109375 47.828125 
Q 26.265625 48.1875 28.421875 48.1875 
Q 40.625 48.1875 47.75 41.5 
Q 54.890625 34.8125 54.890625 23.390625 
Q 54.890625 11.625 47.5625 5.09375 
Q 40.234375 -1.421875 26.90625 -1.421875 
Q 22.3125 -1.421875 17.546875 -0.640625 
Q 12.796875 0.140625 7.71875 1.703125 
L 7.71875 11.625 
Q 12.109375 9.234375 16.796875 8.0625 
Q 21.484375 6.890625 26.703125 6.890625 
Q 35.15625 6.890625 40.078125 11.328125 
Q 45.015625 15.765625 45.015625 23.390625 
Q 45.015625 31 40.078125 35.4375 
Q 35.15625 39.890625 26.703125 39.890625 
Q 22.75 39.890625 18.8125 39.015625 
Q 14.890625 38.140625 10.796875 36.28125 
z
" id="DejaVuSans-53"/>
       </defs>
       <use xlink:href="#DejaVuSans-49"/>
       <use x="63.623047" xlink:href="#DejaVuSans-57"/>
       <use x="127.246094" xlink:href="#DejaVuSans-53"/>
       <use x="190.869141" xlink:href="#DejaVuSans-49"/>
      </g>
     </g>
    </g>
    <g id="xtick_3">
     <g id="line2d_3">
      <g>
       <use style="stroke:#000000;stroke-width:0.8;" x="258.048339" xlink:href="#mc55625508f" y="387.72"/>
      </g>
     </g>
     <g id="text_3">
      <!-- 1953 -->
      <g transform="translate(245.323339 402.318438)scale(0.1 -0.1)">
       <defs>
        <path d="M 40.578125 39.3125 
Q 47.65625 37.796875 51.625 33 
Q 55.609375 28.21875 55.609375 21.1875 
Q 55.609375 10.40625 48.1875 4.484375 
Q 40.765625 -1.421875 27.09375 -1.421875 
Q 22.515625 -1.421875 17.65625 -0.515625 
Q 12.796875 0.390625 7.625 2.203125 
L 7.625 11.71875 
Q 11.71875 9.328125 16.59375 8.109375 
Q 21.484375 6.890625 26.8125 6.890625 
Q 36.078125 6.890625 40.9375 10.546875 
Q 45.796875 14.203125 45.796875 21.1875 
Q 45.796875 27.640625 41.28125 31.265625 
Q 36.765625 34.90625 28.71875 34.90625 
L 20.21875 34.90625 
L 20.21875 43.015625 
L 29.109375 43.015625 
Q 36.375 43.015625 40.234375 45.921875 
Q 44.09375 48.828125 44.09375 54.296875 
Q 44.09375 59.90625 40.109375 62.90625 
Q 36.140625 65.921875 28.71875 65.921875 
Q 24.65625 65.921875 20.015625 65.03125 
Q 15.375 64.15625 9.8125 62.3125 
L 9.8125 71.09375 
Q 15.4375 72.65625 20.34375 73.4375 
Q 25.25 74.21875 29.59375 74.21875 
Q 40.828125 74.21875 47.359375 69.109375 
Q 53.90625 64.015625 53.90625 55.328125 
Q 53.90625 49.265625 50.4375 45.09375 
Q 46.96875 40.921875 40.578125 39.3125 
z
" id="DejaVuSans-51"/>
       </defs>
       <use xlink:href="#DejaVuSans-49"/>
       <use x="63.623047" xlink:href="#DejaVuSans-57"/>
       <use x="127.246094" xlink:href="#DejaVuSans-53"/>
       <use x="190.869141" xlink:href="#DejaVuSans-51"/>
      </g>
     </g>
    </g>
    <g id="xtick_4">
     <g id="line2d_4">
      <g>
       <use style="stroke:#000000;stroke-width:0.8;" x="370.428759" xlink:href="#mc55625508f" y="387.72"/>
      </g>
     </g>
     <g id="text_4">
      <!-- 1955 -->
      <g transform="translate(357.703759 402.318438)scale(0.1 -0.1)">
       <use xlink:href="#DejaVuSans-49"/>
       <use x="63.623047" xlink:href="#DejaVuSans-57"/>
       <use x="127.246094" xlink:href="#DejaVuSans-53"/>
       <use x="190.869141" xlink:href="#DejaVuSans-53"/>
      </g>
     </g>
    </g>
    <g id="xtick_5">
     <g id="line2d_5">
      <g>
       <use style="stroke:#000000;stroke-width:0.8;" x="482.809178" xlink:href="#mc55625508f" y="387.72"/>
      </g>
     </g>
     <g id="text_5">
      <!-- 1957 -->
      <g transform="translate(470.084178 402.318438)scale(0.1 -0.1)">
       <defs>
        <path d="M 8.203125 72.90625 
L 55.078125 72.90625 
L 55.078125 68.703125 
L 28.609375 0 
L 18.3125 0 
L 43.21875 64.59375 
L 8.203125 64.59375 
z
" id="DejaVuSans-55"/>
       </defs>
       <use xlink:href="#DejaVuSans-49"/>
       <use x="63.623047" xlink:href="#DejaVuSans-57"/>
       <use x="127.246094" xlink:href="#DejaVuSans-53"/>
       <use x="190.869141" xlink:href="#DejaVuSans-55"/>
      </g>
     </g>
    </g>
    <g id="xtick_6">
     <g id="line2d_6">
      <g>
       <use style="stroke:#000000;stroke-width:0.8;" x="595.189598" xlink:href="#mc55625508f" y="387.72"/>
      </g>
     </g>
     <g id="text_6">
      <!-- 1959 -->
      <g transform="translate(582.464598 402.318438)scale(0.1 -0.1)">
       <use xlink:href="#DejaVuSans-49"/>
       <use x="63.623047" xlink:href="#DejaVuSans-57"/>
       <use x="127.246094" xlink:href="#DejaVuSans-53"/>
       <use x="190.869141" xlink:href="#DejaVuSans-57"/>
      </g>
     </g>
    </g>
    <g id="xtick_7">
     <g id="line2d_7">
      <defs>
       <path d="M 0 0 
L 0 2 
" id="m03ee3ccf4e" style="stroke:#000000;stroke-width:0.6;"/>
      </defs>
      <g>
       <use style="stroke:#000000;stroke-width:0.6;" x="89.47771" xlink:href="#m03ee3ccf4e" y="387.72"/>
      </g>
     </g>
    </g>
    <g id="xtick_8">
     <g id="line2d_8">
      <g>
       <use style="stroke:#000000;stroke-width:0.6;" x="201.858129" xlink:href="#m03ee3ccf4e" y="387.72"/>
      </g>
     </g>
    </g>
    <g id="xtick_9">
     <g id="line2d_9">
      <g>
       <use style="stroke:#000000;stroke-width:0.6;" x="314.238549" xlink:href="#m03ee3ccf4e" y="387.72"/>
      </g>
     </g>
    </g>
    <g id="xtick_10">
     <g id="line2d_10">
      <g>
       <use style="stroke:#000000;stroke-width:0.6;" x="426.618969" xlink:href="#m03ee3ccf4e" y="387.72"/>
      </g>
     </g>
    </g>
    <g id="xtick_11">
     <g id="line2d_11">
      <g>
       <use style="stroke:#000000;stroke-width:0.6;" x="538.999388" xlink:href="#m03ee3ccf4e" y="387.72"/>
      </g>
     </g>
    </g>
    <g id="xtick_12">
     <g id="line2d_12">
      <g>
       <use style="stroke:#000000;stroke-width:0.6;" x="651.379808" xlink:href="#m03ee3ccf4e" y="387.72"/>
      </g>
     </g>
    </g>
    <g id="text_7">
     <!-- Period -->
     <g transform="translate(352.499219 415.996562)scale(0.1 -0.1)">
      <defs>
       <path d="M 19.671875 64.796875 
L 19.671875 37.40625 
L 32.078125 37.40625 
Q 38.96875 37.40625 42.71875 40.96875 
Q 46.484375 44.53125 46.484375 51.125 
Q 46.484375 57.671875 42.71875 61.234375 
Q 38.96875 64.796875 32.078125 64.796875 
z
M 9.8125 72.90625 
L 32.078125 72.90625 
Q 44.34375 72.90625 50.609375 67.359375 
Q 56.890625 61.8125 56.890625 51.125 
Q 56.890625 40.328125 50.609375 34.8125 
Q 44.34375 29.296875 32.078125 29.296875 
L 19.671875 29.296875 
L 19.671875 0 
L 9.8125 0 
z
" id="DejaVuSans-80"/>
       <path d="M 56.203125 29.59375 
L 56.203125 25.203125 
L 14.890625 25.203125 
Q 15.484375 15.921875 20.484375 11.0625 
Q 25.484375 6.203125 34.421875 6.203125 
Q 39.59375 6.203125 44.453125 7.46875 
Q 49.3125 8.734375 54.109375 11.28125 
L 54.109375 2.78125 
Q 49.265625 0.734375 44.1875 -0.34375 
Q 39.109375 -1.421875 33.890625 -1.421875 
Q 20.796875 -1.421875 13.15625 6.1875 
Q 5.515625 13.8125 5.515625 26.8125 
Q 5.515625 40.234375 12.765625 48.109375 
Q 20.015625 56 32.328125 56 
Q 43.359375 56 49.78125 48.890625 
Q 56.203125 41.796875 56.203125 29.59375 
z
M 47.21875 32.234375 
Q 47.125 39.59375 43.09375 43.984375 
Q 39.0625 48.390625 32.421875 48.390625 
Q 24.90625 48.390625 20.390625 44.140625 
Q 15.875 39.890625 15.1875 32.171875 
z
" id="DejaVuSans-101"/>
       <path d="M 41.109375 46.296875 
Q 39.59375 47.171875 37.8125 47.578125 
Q 36.03125 48 33.890625 48 
Q 26.265625 48 22.1875 43.046875 
Q 18.109375 38.09375 18.109375 28.8125 
L 18.109375 0 
L 9.078125 0 
L 9.078125 54.6875 
L 18.109375 54.6875 
L 18.109375 46.1875 
Q 20.953125 51.171875 25.484375 53.578125 
Q 30.03125 56 36.53125 56 
Q 37.453125 56 38.578125 55.875 
Q 39.703125 55.765625 41.0625 55.515625 
z
" id="DejaVuSans-114"/>
       <path d="M 9.421875 54.6875 
L 18.40625 54.6875 
L 18.40625 0 
L 9.421875 0 
z
M 9.421875 75.984375 
L 18.40625 75.984375 
L 18.40625 64.59375 
L 9.421875 64.59375 
z
" id="DejaVuSans-105"/>
       <path d="M 30.609375 48.390625 
Q 23.390625 48.390625 19.1875 42.75 
Q 14.984375 37.109375 14.984375 27.296875 
Q 14.984375 17.484375 19.15625 11.84375 
Q 23.34375 6.203125 30.609375 6.203125 
Q 37.796875 6.203125 41.984375 11.859375 
Q 46.1875 17.53125 46.1875 27.296875 
Q 46.1875 37.015625 41.984375 42.703125 
Q 37.796875 48.390625 30.609375 48.390625 
z
M 30.609375 56 
Q 42.328125 56 49.015625 48.375 
Q 55.71875 40.765625 55.71875 27.296875 
Q 55.71875 13.875 49.015625 6.21875 
Q 42.328125 -1.421875 30.609375 -1.421875 
Q 18.84375 -1.421875 12.171875 6.21875 
Q 5.515625 13.875 5.515625 27.296875 
Q 5.515625 40.765625 12.171875 48.375 
Q 18.84375 56 30.609375 56 
z
" id="DejaVuSans-111"/>
       <path d="M 45.40625 46.390625 
L 45.40625 75.984375 
L 54.390625 75.984375 
L 54.390625 0 
L 45.40625 0 
L 45.40625 8.203125 
Q 42.578125 3.328125 38.25 0.953125 
Q 33.9375 -1.421875 27.875 -1.421875 
Q 17.96875 -1.421875 11.734375 6.484375 
Q 5.515625 14.40625 5.515625 27.296875 
Q 5.515625 40.1875 11.734375 48.09375 
Q 17.96875 56 27.875 56 
Q 33.9375 56 38.25 53.625 
Q 42.578125 51.265625 45.40625 46.390625 
z
M 14.796875 27.296875 
Q 14.796875 17.390625 18.875 11.75 
Q 22.953125 6.109375 30.078125 6.109375 
Q 37.203125 6.109375 41.296875 11.75 
Q 45.40625 17.390625 45.40625 27.296875 
Q 45.40625 37.203125 41.296875 42.84375 
Q 37.203125 48.484375 30.078125 48.484375 
Q 22.953125 48.484375 18.875 42.84375 
Q 14.796875 37.203125 14.796875 27.296875 
z
" id="DejaVuSans-100"/>
      </defs>
      <use xlink:href="#DejaVuSans-80"/>
      <use x="56.677734" xlink:href="#DejaVuSans-101"/>
      <use x="118.201172" xlink:href="#DejaVuSans-114"/>
      <use x="159.314453" xlink:href="#DejaVuSans-105"/>
      <use x="187.097656" xlink:href="#DejaVuSans-111"/>
      <use x="248.279297" xlink:href="#DejaVuSans-100"/>
     </g>
    </g>
   </g>
   <g id="matplotlib.axis_2">
    <g id="ytick_1">
     <g id="line2d_13">
      <defs>
       <path d="M 0 0 
L -3.5 0 
" id="m15f75401a3" style="stroke:#000000;stroke-width:0.8;"/>
      </defs>
      <g>
       <use style="stroke:#000000;stroke-width:0.8;" x="33.2875" xlink:href="#m15f75401a3" y="354.082621"/>
      </g>
     </g>
     <g id="text_8">
      <!-- 100 -->
      <g transform="translate(7.2 357.881839)scale(0.1 -0.1)">
       <defs>
        <path d="M 31.78125 66.40625 
Q 24.171875 66.40625 20.328125 58.90625 
Q 16.5 51.421875 16.5 36.375 
Q 16.5 21.390625 20.328125 13.890625 
Q 24.171875 6.390625 31.78125 6.390625 
Q 39.453125 6.390625 43.28125 13.890625 
Q 47.125 21.390625 47.125 36.375 
Q 47.125 51.421875 43.28125 58.90625 
Q 39.453125 66.40625 31.78125 66.40625 
z
M 31.78125 74.21875 
Q 44.046875 74.21875 50.515625 64.515625 
Q 56.984375 54.828125 56.984375 36.375 
Q 56.984375 17.96875 50.515625 8.265625 
Q 44.046875 -1.421875 31.78125 -1.421875 
Q 19.53125 -1.421875 13.0625 8.265625 
Q 6.59375 17.96875 6.59375 36.375 
Q 6.59375 54.828125 13.0625 64.515625 
Q 19.53125 74.21875 31.78125 74.21875 
z
" id="DejaVuSans-48"/>
       </defs>
       <use xlink:href="#DejaVuSans-49"/>
       <use x="63.623047" xlink:href="#DejaVuSans-48"/>
       <use x="127.246094" xlink:href="#DejaVuSans-48"/>
      </g>
     </g>
    </g>
    <g id="ytick_2">
     <g id="line2d_14">
      <g>
       <use style="stroke:#000000;stroke-width:0.8;" x="33.2875" xlink:href="#m15f75401a3" y="311.251286"/>
      </g>
     </g>
     <g id="text_9">
      <!-- 200 -->
      <g transform="translate(7.2 315.050505)scale(0.1 -0.1)">
       <defs>
        <path d="M 19.1875 8.296875 
L 53.609375 8.296875 
L 53.609375 0 
L 7.328125 0 
L 7.328125 8.296875 
Q 12.9375 14.109375 22.625 23.890625 
Q 32.328125 33.6875 34.8125 36.53125 
Q 39.546875 41.84375 41.421875 45.53125 
Q 43.3125 49.21875 43.3125 52.78125 
Q 43.3125 58.59375 39.234375 62.25 
Q 35.15625 65.921875 28.609375 65.921875 
Q 23.96875 65.921875 18.8125 64.3125 
Q 13.671875 62.703125 7.8125 59.421875 
L 7.8125 69.390625 
Q 13.765625 71.78125 18.9375 73 
Q 24.125 74.21875 28.421875 74.21875 
Q 39.75 74.21875 46.484375 68.546875 
Q 53.21875 62.890625 53.21875 53.421875 
Q 53.21875 48.921875 51.53125 44.890625 
Q 49.859375 40.875 45.40625 35.40625 
Q 44.1875 33.984375 37.640625 27.21875 
Q 31.109375 20.453125 19.1875 8.296875 
z
" id="DejaVuSans-50"/>
       </defs>
       <use xlink:href="#DejaVuSans-50"/>
       <use x="63.623047" xlink:href="#DejaVuSans-48"/>
       <use x="127.246094" xlink:href="#DejaVuSans-48"/>
      </g>
     </g>
    </g>
    <g id="ytick_3">
     <g id="line2d_15">
      <g>
       <use style="stroke:#000000;stroke-width:0.8;" x="33.2875" xlink:href="#m15f75401a3" y="268.419952"/>
      </g>
     </g>
     <g id="text_10">
      <!-- 300 -->
      <g transform="translate(7.2 272.219171)scale(0.1 -0.1)">
       <use xlink:href="#DejaVuSans-51"/>
       <use x="63.623047" xlink:href="#DejaVuSans-48"/>
       <use x="127.246094" xlink:href="#DejaVuSans-48"/>
      </g>
     </g>
    </g>
    <g id="ytick_4">
     <g id="line2d_16">
      <g>
       <use style="stroke:#000000;stroke-width:0.8;" x="33.2875" xlink:href="#m15f75401a3" y="225.588617"/>
      </g>
     </g>
     <g id="text_11">
      <!-- 400 -->
      <g transform="translate(7.2 229.387836)scale(0.1 -0.1)">
       <use xlink:href="#DejaVuSans-52"/>
       <use x="63.623047" xlink:href="#DejaVuSans-48"/>
       <use x="127.246094" xlink:href="#DejaVuSans-48"/>
      </g>
     </g>
    </g>
    <g id="ytick_5">
     <g id="line2d_17">
      <g>
       <use style="stroke:#000000;stroke-width:0.8;" x="33.2875" xlink:href="#m15f75401a3" y="182.757283"/>
      </g>
     </g>
     <g id="text_12">
      <!-- 500 -->
      <g transform="translate(7.2 186.556502)scale(0.1 -0.1)">
       <use xlink:href="#DejaVuSans-53"/>
       <use x="63.623047" xlink:href="#DejaVuSans-48"/>
       <use x="127.246094" xlink:href="#DejaVuSans-48"/>
      </g>
     </g>
    </g>
    <g id="ytick_6">
     <g id="line2d_18">
      <g>
       <use style="stroke:#000000;stroke-width:0.8;" x="33.2875" xlink:href="#m15f75401a3" y="139.925948"/>
      </g>
     </g>
     <g id="text_13">
      <!-- 600 -->
      <g transform="translate(7.2 143.725167)scale(0.1 -0.1)">
       <defs>
        <path d="M 33.015625 40.375 
Q 26.375 40.375 22.484375 35.828125 
Q 18.609375 31.296875 18.609375 23.390625 
Q 18.609375 15.53125 22.484375 10.953125 
Q 26.375 6.390625 33.015625 6.390625 
Q 39.65625 6.390625 43.53125 10.953125 
Q 47.40625 15.53125 47.40625 23.390625 
Q 47.40625 31.296875 43.53125 35.828125 
Q 39.65625 40.375 33.015625 40.375 
z
M 52.59375 71.296875 
L 52.59375 62.3125 
Q 48.875 64.0625 45.09375 64.984375 
Q 41.3125 65.921875 37.59375 65.921875 
Q 27.828125 65.921875 22.671875 59.328125 
Q 17.53125 52.734375 16.796875 39.40625 
Q 19.671875 43.65625 24.015625 45.921875 
Q 28.375 48.1875 33.59375 48.1875 
Q 44.578125 48.1875 50.953125 41.515625 
Q 57.328125 34.859375 57.328125 23.390625 
Q 57.328125 12.15625 50.6875 5.359375 
Q 44.046875 -1.421875 33.015625 -1.421875 
Q 20.359375 -1.421875 13.671875 8.265625 
Q 6.984375 17.96875 6.984375 36.375 
Q 6.984375 53.65625 15.1875 63.9375 
Q 23.390625 74.21875 37.203125 74.21875 
Q 40.921875 74.21875 44.703125 73.484375 
Q 48.484375 72.75 52.59375 71.296875 
z
" id="DejaVuSans-54"/>
       </defs>
       <use xlink:href="#DejaVuSans-54"/>
       <use x="63.623047" xlink:href="#DejaVuSans-48"/>
       <use x="127.246094" xlink:href="#DejaVuSans-48"/>
      </g>
     </g>
    </g>
    <g id="ytick_7">
     <g id="line2d_19">
      <g>
       <use style="stroke:#000000;stroke-width:0.8;" x="33.2875" xlink:href="#m15f75401a3" y="97.094614"/>
      </g>
     </g>
     <g id="text_14">
      <!-- 700 -->
      <g transform="translate(7.2 100.893833)scale(0.1 -0.1)">
       <use xlink:href="#DejaVuSans-55"/>
       <use x="63.623047" xlink:href="#DejaVuSans-48"/>
       <use x="127.246094" xlink:href="#DejaVuSans-48"/>
      </g>
     </g>
    </g>
    <g id="ytick_8">
     <g id="line2d_20">
      <g>
       <use style="stroke:#000000;stroke-width:0.8;" x="33.2875" xlink:href="#m15f75401a3" y="54.26328"/>
      </g>
     </g>
     <g id="text_15">
      <!-- 800 -->
      <g transform="translate(7.2 58.062498)scale(0.1 -0.1)">
       <defs>
        <path d="M 31.78125 34.625 
Q 24.75 34.625 20.71875 30.859375 
Q 16.703125 27.09375 16.703125 20.515625 
Q 16.703125 13.921875 20.71875 10.15625 
Q 24.75 6.390625 31.78125 6.390625 
Q 38.8125 6.390625 42.859375 10.171875 
Q 46.921875 13.96875 46.921875 20.515625 
Q 46.921875 27.09375 42.890625 30.859375 
Q 38.875 34.625 31.78125 34.625 
z
M 21.921875 38.8125 
Q 15.578125 40.375 12.03125 44.71875 
Q 8.5 49.078125 8.5 55.328125 
Q 8.5 64.0625 14.71875 69.140625 
Q 20.953125 74.21875 31.78125 74.21875 
Q 42.671875 74.21875 48.875 69.140625 
Q 55.078125 64.0625 55.078125 55.328125 
Q 55.078125 49.078125 51.53125 44.71875 
Q 48 40.375 41.703125 38.8125 
Q 48.828125 37.15625 52.796875 32.3125 
Q 56.78125 27.484375 56.78125 20.515625 
Q 56.78125 9.90625 50.3125 4.234375 
Q 43.84375 -1.421875 31.78125 -1.421875 
Q 19.734375 -1.421875 13.25 4.234375 
Q 6.78125 9.90625 6.78125 20.515625 
Q 6.78125 27.484375 10.78125 32.3125 
Q 14.796875 37.15625 21.921875 38.8125 
z
M 18.3125 54.390625 
Q 18.3125 48.734375 21.84375 45.5625 
Q 25.390625 42.390625 31.78125 42.390625 
Q 38.140625 42.390625 41.71875 45.5625 
Q 45.3125 48.734375 45.3125 54.390625 
Q 45.3125 60.0625 41.71875 63.234375 
Q 38.140625 66.40625 31.78125 66.40625 
Q 25.390625 66.40625 21.84375 63.234375 
Q 18.3125 60.0625 18.3125 54.390625 
z
" id="DejaVuSans-56"/>
       </defs>
       <use xlink:href="#DejaVuSans-56"/>
       <use x="63.623047" xlink:href="#DejaVuSans-48"/>
       <use x="127.246094" xlink:href="#DejaVuSans-48"/>
      </g>
     </g>
    </g>
    <g id="ytick_9">
     <g id="line2d_21">
      <g>
       <use style="stroke:#000000;stroke-width:0.8;" x="33.2875" xlink:href="#m15f75401a3" y="11.431945"/>
      </g>
     </g>
     <g id="text_16">
      <!-- 900 -->
      <g transform="translate(7.2 15.231164)scale(0.1 -0.1)">
       <use xlink:href="#DejaVuSans-57"/>
       <use x="63.623047" xlink:href="#DejaVuSans-48"/>
       <use x="127.246094" xlink:href="#DejaVuSans-48"/>
      </g>
     </g>
    </g>
   </g>
   <g id="line2d_22">
    <path clip-path="url(#pea9eeeed09)" d="M 33.2875 358.232993 
L 702.8875 195.483646 
L 702.8875 195.483646 
" style="fill:none;stroke:#1f77b4;stroke-linecap:square;stroke-width:1.5;"/>
   </g>
   <g id="line2d_23">
    <path clip-path="url(#pea9eeeed09)" d="M 33.2875 348.942861 
L 37.970017 346.372981 
L 42.652535 340.376594 
L 47.335052 341.661534 
L 52.01757 345.08804 
L 56.700087 339.091654 
L 61.382605 333.52358 
L 66.065122 333.52358 
L 70.74764 338.66334 
L 75.430157 345.944667 
L 80.112675 352.369367 
L 84.795192 346.372981 
L 89.47771 347.657921 
L 94.160227 342.946474 
L 98.842745 336.521774 
L 103.525262 339.091654 
L 108.20778 343.374787 
L 112.890297 333.095267 
L 117.572815 324.100687 
L 122.255332 324.100687 
L 126.93785 329.240447 
L 131.620367 339.94828 
L 136.302885 348.086234 
L 140.985402 336.950087 
L 150.350437 332.666953 
L 155.032955 320.67418 
L 159.715472 327.09888 
L 164.39799 323.24406 
L 169.080507 320.67418 
L 173.763024 311.6796 
L 178.445542 311.6796 
L 183.128059 318.1043 
L 187.810577 327.527193 
L 192.493094 334.380207 
L 197.175612 325.81394 
L 201.858129 323.672373 
L 206.540647 319.817553 
L 211.223164 314.24948 
L 215.905682 319.38924 
L 220.588199 318.532613 
L 225.270717 303.541646 
L 234.635752 293.262126 
L 239.318269 307.396466 
L 244.000787 315.106106 
L 248.683304 323.24406 
L 253.365822 313.821166 
L 258.048339 312.96454 
L 262.730857 312.96454 
L 267.413374 295.832006 
L 272.095892 296.260319 
L 276.778409 298.830199 
L 281.460927 292.833812 
L 286.143444 283.839232 
L 290.825962 280.412725 
L 295.508479 295.403693 
L 300.190997 306.539839 
L 304.873514 319.817553 
L 309.556031 310.822973 
L 314.238549 309.538033 
L 318.921066 316.391046 
L 323.603584 296.260319 
L 328.286101 299.686826 
L 332.968619 296.688633 
L 337.651136 283.839232 
L 342.333654 267.563325 
L 347.016171 271.418145 
L 351.698689 285.980799 
L 356.381206 298.830199 
L 361.063724 309.966346 
L 365.746241 298.830199 
L 370.428759 293.262126 
L 375.111276 297.116946 
L 379.793794 282.554292 
L 384.476311 281.697665 
L 389.158829 281.269352 
L 393.841346 261.995252 
L 398.523864 241.007898 
L 403.206381 248.289225 
L 407.888899 263.280192 
L 412.571416 279.556099 
L 417.253934 295.403693 
L 421.936451 277.842845 
L 426.618969 275.272965 
L 431.301486 278.271159 
L 435.984003 261.138625 
L 440.666521 262.851878 
L 445.349038 260.710312 
L 450.031556 236.724764 
L 454.714073 220.020544 
L 459.396591 223.447051 
L 468.761626 265.850072 
L 473.444143 280.841039 
L 478.126661 265.850072 
L 482.809178 261.995252 
L 487.491696 267.991638 
L 492.174213 244.434405 
L 496.856731 247.860911 
L 501.539248 244.862718 
L 506.221766 216.165724 
L 510.904283 197.74825 
L 515.586801 196.891623 
L 520.269318 223.875364 
L 524.951836 248.289225 
L 529.634353 266.278385 
L 534.316871 253.000671 
L 538.999388 251.287418 
L 543.681906 260.710312 
L 548.364423 241.864524 
L 553.046941 247.860911 
L 557.729458 241.436211 
L 562.411976 210.59765 
L 567.094493 186.612103 
L 571.77701 180.615716 
L 576.459528 223.875364 
L 581.142045 243.149464 
L 585.824563 264.136818 
L 590.50708 252.572358 
L 595.189598 242.721151 
L 599.872115 250.430791 
L 604.554633 223.018737 
L 609.23715 227.301871 
L 613.919668 217.02235 
L 618.602185 194.750057 
L 623.284703 162.198242 
L 627.96722 157.486796 
L 632.649738 198.604877 
L 637.332255 222.590424 
L 642.014773 241.864524 
L 646.69729 223.447051 
L 651.379808 218.30729 
L 656.062325 229.443437 
L 660.744843 217.450664 
L 665.42736 199.461503 
L 670.109878 194.750057 
L 674.792395 167.766316 
L 679.474913 130.503055 
L 684.15743 137.356068 
L 688.839948 179.330776 
L 693.522465 199.461503 
L 698.204983 229.871751 
L 702.8875 211.88259 
L 702.8875 211.88259 
" style="fill:none;stroke:#ff7f0e;stroke-linecap:square;stroke-width:1.5;"/>
   </g>
   <g id="line2d_24">
    <path clip-path="url(#pea9eeeed09)" d="M 33.2875 339.652728 
L 37.970017 335.651075 
L 42.652535 324.796409 
L 47.335052 328.504396 
L 52.01757 336.495517 
L 56.700087 325.640851 
L 61.382605 315.642811 
L 66.065122 316.780918 
L 70.74764 328.198546 
L 75.430157 343.899307 
L 80.112675 357.886815 
L 84.795192 347.032148 
L 89.47771 350.740136 
L 94.160227 342.455349 
L 98.842745 330.744056 
L 103.525262 337.021924 
L 108.20778 346.726298 
L 112.890297 327.305365 
L 117.572815 310.454312 
L 122.255332 311.592419 
L 126.93785 323.010047 
L 131.620367 345.563821 
L 136.302885 362.977836 
L 140.985402 341.843649 
L 150.350437 335.553597 
L 155.032955 312.706157 
L 159.715472 326.693664 
L 164.39799 320.122132 
L 169.080507 316.120479 
L 173.763024 299.269426 
L 178.445542 300.407533 
L 183.128059 314.395041 
L 187.810577 334.378935 
L 192.493094 349.223069 
L 197.175612 333.228643 
L 201.858129 330.083617 
L 206.540647 323.512084 
L 211.223164 313.514044 
L 215.905682 324.931672 
L 220.588199 324.356526 
L 225.270717 295.512699 
L 234.635752 277.229873 
L 239.318269 306.636661 
L 244.000787 323.194049 
L 248.683304 340.608063 
L 253.365822 322.900384 
L 258.048339 322.325238 
L 262.730857 323.463345 
L 267.413374 290.336385 
L 272.095892 292.331119 
L 276.778409 298.608986 
L 281.460927 287.75432 
L 286.143444 270.903267 
L 290.825962 265.18836 
L 295.508479 296.308402 
L 300.190997 319.718803 
L 304.873514 347.412338 
L 309.556031 330.561285 
L 314.238549 329.129512 
L 318.921066 343.973646 
L 323.603584 304.850299 
L 328.286101 312.84142 
L 332.968619 307.983141 
L 337.651136 283.422447 
L 342.333654 252.00874 
L 347.016171 260.856488 
L 351.698689 291.119903 
L 356.381206 317.956811 
L 361.063724 341.367212 
L 365.746241 320.233025 
L 370.428759 310.234986 
L 375.111276 319.082733 
L 379.793794 291.095533 
L 384.476311 290.520387 
L 389.158829 290.801868 
L 393.841346 253.391774 
L 398.523864 212.555174 
L 403.206381 228.255935 
L 407.888899 259.375976 
L 412.571416 293.065898 
L 417.253934 325.899192 
L 421.936451 291.915605 
L 426.618969 287.913953 
L 431.301486 295.048447 
L 435.984003 261.921487 
L 440.666521 266.486101 
L 445.349038 263.341075 
L 450.031556 216.508087 
L 454.714073 184.237754 
L 459.396591 192.228875 
L 468.761626 279.311131 
L 473.444143 310.431173 
L 478.126661 281.587346 
L 482.809178 275.015813 
L 487.491696 288.146694 
L 492.174213 242.170334 
L 496.856731 250.161454 
L 501.539248 245.303175 
L 506.221766 189.047294 
L 510.904283 153.350454 
L 515.586801 152.775308 
L 520.269318 207.880896 
L 524.951836 257.846725 
L 529.634353 294.963153 
L 534.316871 269.545833 
L 538.999388 267.257434 
L 543.681906 287.241328 
L 548.364423 250.687861 
L 553.046941 263.818742 
L 557.729458 252.107449 
L 562.411976 191.568435 
L 567.094493 144.735448 
L 571.77701 133.880781 
L 576.459528 221.538184 
L 581.142045 261.224493 
L 585.824563 304.337308 
L 590.50708 282.346495 
L 595.189598 263.782188 
L 599.872115 280.339576 
L 604.554633 226.653575 
L 609.23715 236.357949 
L 613.919668 216.937016 
L 618.602185 173.530535 
L 623.284703 109.565014 
L 627.96722 101.280228 
L 632.649738 184.654498 
L 637.332255 233.7637 
L 642.014773 273.450008 
L 646.69729 237.753168 
L 651.379808 228.611755 
L 656.062325 252.022156 
L 660.744843 229.174716 
L 665.42736 194.334502 
L 670.109878 186.049716 
L 674.792395 133.220342 
L 679.474913 59.831927 
L 684.15743 74.676062 
L 688.839948 159.763585 
L 693.522465 201.163146 
L 698.204983 263.121749 
L 702.8875 228.281535 
L 702.8875 228.281535 
" style="fill:none;stroke:#2ca02c;stroke-linecap:square;stroke-width:1.5;"/>
   </g>
   <g id="line2d_25">
    <path clip-path="url(#pea9eeeed09)" d="M 33.2875 335.007661 
L 37.970017 330.290122 
L 42.652535 317.006316 
L 47.335052 321.925827 
L 52.01757 332.199255 
L 56.700087 318.915449 
L 61.382605 306.702426 
L 66.065122 308.409587 
L 70.74764 322.966149 
L 75.430157 342.876627 
L 80.112675 360.645538 
L 84.795192 347.361732 
L 89.47771 352.281243 
L 94.160227 342.209787 
L 98.842745 327.855198 
L 103.525262 335.987059 
L 108.20778 348.402053 
L 112.890297 324.410414 
L 117.572815 303.631124 
L 122.255332 305.338285 
L 126.93785 319.894846 
L 131.620367 348.371592 
L 136.302885 370.423636 
L 140.985402 344.29043 
L 150.350437 336.996918 
L 155.032955 308.722145 
L 159.715472 326.491057 
L 164.39799 318.561167 
L 169.080507 313.843628 
L 173.763024 293.064339 
L 178.445542 294.7715 
L 183.128059 312.540411 
L 187.810577 337.804806 
L 192.493094 356.644501 
L 197.175612 336.935994 
L 201.858129 333.289239 
L 206.540647 325.359349 
L 211.223164 313.146327 
L 215.905682 327.702888 
L 220.588199 327.268482 
L 225.270717 291.498226 
L 234.635752 269.213747 
L 239.318269 306.256759 
L 244.000787 327.23802 
L 248.683304 349.290065 
L 253.365822 327.439992 
L 258.048339 327.005586 
L 262.730857 328.712747 
L 267.413374 287.588574 
L 272.095892 290.366518 
L 276.778409 298.49838 
L 281.460927 285.214573 
L 286.143444 264.435284 
L 290.825962 257.576178 
L 295.508479 296.760757 
L 300.190997 326.308285 
L 304.873514 361.20973 
L 309.556031 340.430441 
L 314.238549 338.925251 
L 318.921066 357.764946 
L 323.603584 309.145289 
L 328.286101 319.418717 
L 332.968619 313.630395 
L 337.651136 283.214055 
L 342.333654 244.231448 
L 347.016171 255.575659 
L 351.698689 293.689455 
L 356.381206 327.520116 
L 361.063724 357.067645 
L 365.746241 330.934438 
L 370.428759 318.721416 
L 375.111276 330.065627 
L 379.793794 295.366154 
L 384.476311 294.931748 
L 389.158829 295.568125 
L 393.841346 249.090035 
L 398.523864 198.328811 
L 403.206381 218.23929 
L 407.888899 257.423868 
L 412.571416 299.820797 
L 417.253934 341.146942 
L 421.936451 298.951985 
L 426.618969 294.234446 
L 431.301486 303.437091 
L 435.984003 262.312917 
L 440.666521 268.303212 
L 445.349038 264.656456 
L 450.031556 206.399749 
L 454.714073 166.346359 
L 459.396591 176.619787 
L 468.761626 286.041661 
L 473.444143 325.22624 
L 478.126661 289.455983 
L 482.809178 281.526094 
L 487.491696 298.224222 
L 492.174213 241.038298 
L 496.856731 251.311726 
L 501.539248 245.523404 
L 506.221766 175.488079 
L 510.904283 131.151556 
L 515.586801 130.71715 
L 520.269318 199.883663 
L 524.951836 262.625475 
L 529.634353 309.305538 
L 534.316871 277.818414 
L 538.999388 275.242442 
L 543.681906 300.506837 
L 548.364423 255.09953 
L 553.046941 271.797658 
L 557.729458 257.443068 
L 562.411976 182.053827 
L 567.094493 123.79712 
L 571.77701 110.513314 
L 576.459528 220.369595 
L 581.142045 270.262007 
L 585.824563 324.437553 
L 590.50708 297.233563 
L 595.189598 274.312706 
L 599.872115 295.293968 
L 604.554633 228.470994 
L 609.23715 240.885988 
L 613.919668 216.894349 
L 618.602185 162.920775 
L 623.284703 83.2484 
L 627.96722 73.176945 
L 632.649738 177.679308 
L 637.332255 239.350337 
L 642.014773 289.24275 
L 646.69729 244.906226 
L 651.379808 233.763987 
L 656.062325 263.311515 
L 660.744843 235.036742 
L 665.42736 191.771002 
L 670.109878 181.699546 
L 674.792395 115.947355 
L 679.474913 24.496364 
L 684.15743 43.336058 
L 688.839948 149.979989 
L 693.522465 202.013968 
L 698.204983 279.746747 
L 702.8875 236.481007 
L 702.8875 236.481007 
" style="fill:none;stroke:#d62728;stroke-linecap:square;stroke-width:1.5;"/>
   </g>
   <g id="patch_3">
    <path d="M 33.2875 387.72 
L 33.2875 7.2 
" style="fill:none;stroke:#000000;stroke-linecap:square;stroke-linejoin:miter;stroke-width:0.8;"/>
   </g>
   <g id="patch_4">
    <path d="M 702.8875 387.72 
L 702.8875 7.2 
" style="fill:none;stroke:#000000;stroke-linecap:square;stroke-linejoin:miter;stroke-width:0.8;"/>
   </g>
   <g id="patch_5">
    <path d="M 33.2875 387.72 
L 702.8875 387.72 
" style="fill:none;stroke:#000000;stroke-linecap:square;stroke-linejoin:miter;stroke-width:0.8;"/>
   </g>
   <g id="patch_6">
    <path d="M 33.2875 7.2 
L 702.8875 7.2 
" style="fill:none;stroke:#000000;stroke-linecap:square;stroke-linejoin:miter;stroke-width:0.8;"/>
   </g>
   <g id="legend_1">
    <g id="patch_7">
     <path d="M 40.2875 73.9125 
L 203.389063 73.9125 
Q 205.389063 73.9125 205.389063 71.9125 
L 205.389063 14.2 
Q 205.389063 12.2 203.389063 12.2 
L 40.2875 12.2 
Q 38.2875 12.2 38.2875 14.2 
L 38.2875 71.9125 
Q 38.2875 73.9125 40.2875 73.9125 
z
" style="fill:#ffffff;opacity:0.8;stroke:#cccccc;stroke-linejoin:miter;"/>
    </g>
    <g id="line2d_26">
     <path d="M 42.2875 20.298438 
L 62.2875 20.298438 
" style="fill:none;stroke:#1f77b4;stroke-linecap:square;stroke-width:1.5;"/>
    </g>
    <g id="line2d_27"/>
    <g id="text_17">
     <!-- theta=0, linear regression -->
     <g transform="translate(70.2875 23.798438)scale(0.1 -0.1)">
      <defs>
       <path d="M 18.3125 70.21875 
L 18.3125 54.6875 
L 36.8125 54.6875 
L 36.8125 47.703125 
L 18.3125 47.703125 
L 18.3125 18.015625 
Q 18.3125 11.328125 20.140625 9.421875 
Q 21.96875 7.515625 27.59375 7.515625 
L 36.8125 7.515625 
L 36.8125 0 
L 27.59375 0 
Q 17.1875 0 13.234375 3.875 
Q 9.28125 7.765625 9.28125 18.015625 
L 9.28125 47.703125 
L 2.6875 47.703125 
L 2.6875 54.6875 
L 9.28125 54.6875 
L 9.28125 70.21875 
z
" id="DejaVuSans-116"/>
       <path d="M 54.890625 33.015625 
L 54.890625 0 
L 45.90625 0 
L 45.90625 32.71875 
Q 45.90625 40.484375 42.875 44.328125 
Q 39.84375 48.1875 33.796875 48.1875 
Q 26.515625 48.1875 22.3125 43.546875 
Q 18.109375 38.921875 18.109375 30.90625 
L 18.109375 0 
L 9.078125 0 
L 9.078125 75.984375 
L 18.109375 75.984375 
L 18.109375 46.1875 
Q 21.34375 51.125 25.703125 53.5625 
Q 30.078125 56 35.796875 56 
Q 45.21875 56 50.046875 50.171875 
Q 54.890625 44.34375 54.890625 33.015625 
z
" id="DejaVuSans-104"/>
       <path d="M 34.28125 27.484375 
Q 23.390625 27.484375 19.1875 25 
Q 14.984375 22.515625 14.984375 16.5 
Q 14.984375 11.71875 18.140625 8.90625 
Q 21.296875 6.109375 26.703125 6.109375 
Q 34.1875 6.109375 38.703125 11.40625 
Q 43.21875 16.703125 43.21875 25.484375 
L 43.21875 27.484375 
z
M 52.203125 31.203125 
L 52.203125 0 
L 43.21875 0 
L 43.21875 8.296875 
Q 40.140625 3.328125 35.546875 0.953125 
Q 30.953125 -1.421875 24.3125 -1.421875 
Q 15.921875 -1.421875 10.953125 3.296875 
Q 6 8.015625 6 15.921875 
Q 6 25.140625 12.171875 29.828125 
Q 18.359375 34.515625 30.609375 34.515625 
L 43.21875 34.515625 
L 43.21875 35.40625 
Q 43.21875 41.609375 39.140625 45 
Q 35.0625 48.390625 27.6875 48.390625 
Q 23 48.390625 18.546875 47.265625 
Q 14.109375 46.140625 10.015625 43.890625 
L 10.015625 52.203125 
Q 14.9375 54.109375 19.578125 55.046875 
Q 24.21875 56 28.609375 56 
Q 40.484375 56 46.34375 49.84375 
Q 52.203125 43.703125 52.203125 31.203125 
z
" id="DejaVuSans-97"/>
       <path d="M 10.59375 45.40625 
L 73.1875 45.40625 
L 73.1875 37.203125 
L 10.59375 37.203125 
z
M 10.59375 25.484375 
L 73.1875 25.484375 
L 73.1875 17.1875 
L 10.59375 17.1875 
z
" id="DejaVuSans-61"/>
       <path d="M 11.71875 12.40625 
L 22.015625 12.40625 
L 22.015625 4 
L 14.015625 -11.625 
L 7.71875 -11.625 
L 11.71875 4 
z
" id="DejaVuSans-44"/>
       <path id="DejaVuSans-32"/>
       <path d="M 9.421875 75.984375 
L 18.40625 75.984375 
L 18.40625 0 
L 9.421875 0 
z
" id="DejaVuSans-108"/>
       <path d="M 54.890625 33.015625 
L 54.890625 0 
L 45.90625 0 
L 45.90625 32.71875 
Q 45.90625 40.484375 42.875 44.328125 
Q 39.84375 48.1875 33.796875 48.1875 
Q 26.515625 48.1875 22.3125 43.546875 
Q 18.109375 38.921875 18.109375 30.90625 
L 18.109375 0 
L 9.078125 0 
L 9.078125 54.6875 
L 18.109375 54.6875 
L 18.109375 46.1875 
Q 21.34375 51.125 25.703125 53.5625 
Q 30.078125 56 35.796875 56 
Q 45.21875 56 50.046875 50.171875 
Q 54.890625 44.34375 54.890625 33.015625 
z
" id="DejaVuSans-110"/>
       <path d="M 45.40625 27.984375 
Q 45.40625 37.75 41.375 43.109375 
Q 37.359375 48.484375 30.078125 48.484375 
Q 22.859375 48.484375 18.828125 43.109375 
Q 14.796875 37.75 14.796875 27.984375 
Q 14.796875 18.265625 18.828125 12.890625 
Q 22.859375 7.515625 30.078125 7.515625 
Q 37.359375 7.515625 41.375 12.890625 
Q 45.40625 18.265625 45.40625 27.984375 
z
M 54.390625 6.78125 
Q 54.390625 -7.171875 48.1875 -13.984375 
Q 42 -20.796875 29.203125 -20.796875 
Q 24.46875 -20.796875 20.265625 -20.09375 
Q 16.0625 -19.390625 12.109375 -17.921875 
L 12.109375 -9.1875 
Q 16.0625 -11.328125 19.921875 -12.34375 
Q 23.78125 -13.375 27.78125 -13.375 
Q 36.625 -13.375 41.015625 -8.765625 
Q 45.40625 -4.15625 45.40625 5.171875 
L 45.40625 9.625 
Q 42.625 4.78125 38.28125 2.390625 
Q 33.9375 0 27.875 0 
Q 17.828125 0 11.671875 7.65625 
Q 5.515625 15.328125 5.515625 27.984375 
Q 5.515625 40.671875 11.671875 48.328125 
Q 17.828125 56 27.875 56 
Q 33.9375 56 38.28125 53.609375 
Q 42.625 51.21875 45.40625 46.390625 
L 45.40625 54.6875 
L 54.390625 54.6875 
z
" id="DejaVuSans-103"/>
       <path d="M 44.28125 53.078125 
L 44.28125 44.578125 
Q 40.484375 46.53125 36.375 47.5 
Q 32.28125 48.484375 27.875 48.484375 
Q 21.1875 48.484375 17.84375 46.4375 
Q 14.5 44.390625 14.5 40.28125 
Q 14.5 37.15625 16.890625 35.375 
Q 19.28125 33.59375 26.515625 31.984375 
L 29.59375 31.296875 
Q 39.15625 29.25 43.1875 25.515625 
Q 47.21875 21.78125 47.21875 15.09375 
Q 47.21875 7.46875 41.1875 3.015625 
Q 35.15625 -1.421875 24.609375 -1.421875 
Q 20.21875 -1.421875 15.453125 -0.5625 
Q 10.6875 0.296875 5.421875 2 
L 5.421875 11.28125 
Q 10.40625 8.6875 15.234375 7.390625 
Q 20.0625 6.109375 24.8125 6.109375 
Q 31.15625 6.109375 34.5625 8.28125 
Q 37.984375 10.453125 37.984375 14.40625 
Q 37.984375 18.0625 35.515625 20.015625 
Q 33.0625 21.96875 24.703125 23.78125 
L 21.578125 24.515625 
Q 13.234375 26.265625 9.515625 29.90625 
Q 5.8125 33.546875 5.8125 39.890625 
Q 5.8125 47.609375 11.28125 51.796875 
Q 16.75 56 26.8125 56 
Q 31.78125 56 36.171875 55.265625 
Q 40.578125 54.546875 44.28125 53.078125 
z
" id="DejaVuSans-115"/>
      </defs>
      <use xlink:href="#DejaVuSans-116"/>
      <use x="39.208984" xlink:href="#DejaVuSans-104"/>
      <use x="102.587891" xlink:href="#DejaVuSans-101"/>
      <use x="164.111328" xlink:href="#DejaVuSans-116"/>
      <use x="203.320312" xlink:href="#DejaVuSans-97"/>
      <use x="264.599609" xlink:href="#DejaVuSans-61"/>
      <use x="348.388672" xlink:href="#DejaVuSans-48"/>
      <use x="412.011719" xlink:href="#DejaVuSans-44"/>
      <use x="443.798828" xlink:href="#DejaVuSans-32"/>
      <use x="475.585938" xlink:href="#DejaVuSans-108"/>
      <use x="503.369141" xlink:href="#DejaVuSans-105"/>
      <use x="531.152344" xlink:href="#DejaVuSans-110"/>
      <use x="594.53125" xlink:href="#DejaVuSans-101"/>
      <use x="656.054688" xlink:href="#DejaVuSans-97"/>
      <use x="717.333984" xlink:href="#DejaVuSans-114"/>
      <use x="758.447266" xlink:href="#DejaVuSans-32"/>
      <use x="790.234375" xlink:href="#DejaVuSans-114"/>
      <use x="829.097656" xlink:href="#DejaVuSans-101"/>
      <use x="890.621094" xlink:href="#DejaVuSans-103"/>
      <use x="954.097656" xlink:href="#DejaVuSans-114"/>
      <use x="992.960938" xlink:href="#DejaVuSans-101"/>
      <use x="1054.484375" xlink:href="#DejaVuSans-115"/>
      <use x="1106.583984" xlink:href="#DejaVuSans-115"/>
      <use x="1158.683594" xlink:href="#DejaVuSans-105"/>
      <use x="1186.466797" xlink:href="#DejaVuSans-111"/>
      <use x="1247.648438" xlink:href="#DejaVuSans-110"/>
     </g>
    </g>
    <g id="line2d_28">
     <path d="M 42.2875 34.976563 
L 62.2875 34.976563 
" style="fill:none;stroke:#ff7f0e;stroke-linecap:square;stroke-width:1.5;"/>
    </g>
    <g id="line2d_29"/>
    <g id="text_18">
     <!-- theta=1, original ts -->
     <g transform="translate(70.2875 38.476563)scale(0.1 -0.1)">
      <use xlink:href="#DejaVuSans-116"/>
      <use x="39.208984" xlink:href="#DejaVuSans-104"/>
      <use x="102.587891" xlink:href="#DejaVuSans-101"/>
      <use x="164.111328" xlink:href="#DejaVuSans-116"/>
      <use x="203.320312" xlink:href="#DejaVuSans-97"/>
      <use x="264.599609" xlink:href="#DejaVuSans-61"/>
      <use x="348.388672" xlink:href="#DejaVuSans-49"/>
      <use x="412.011719" xlink:href="#DejaVuSans-44"/>
      <use x="443.798828" xlink:href="#DejaVuSans-32"/>
      <use x="475.585938" xlink:href="#DejaVuSans-111"/>
      <use x="536.767578" xlink:href="#DejaVuSans-114"/>
      <use x="577.880859" xlink:href="#DejaVuSans-105"/>
      <use x="605.664062" xlink:href="#DejaVuSans-103"/>
      <use x="669.140625" xlink:href="#DejaVuSans-105"/>
      <use x="696.923828" xlink:href="#DejaVuSans-110"/>
      <use x="760.302734" xlink:href="#DejaVuSans-97"/>
      <use x="821.582031" xlink:href="#DejaVuSans-108"/>
      <use x="849.365234" xlink:href="#DejaVuSans-32"/>
      <use x="881.152344" xlink:href="#DejaVuSans-116"/>
      <use x="920.361328" xlink:href="#DejaVuSans-115"/>
     </g>
    </g>
    <g id="line2d_30">
     <path d="M 42.2875 49.654688 
L 62.2875 49.654688 
" style="fill:none;stroke:#2ca02c;stroke-linecap:square;stroke-width:1.5;"/>
    </g>
    <g id="line2d_31"/>
    <g id="text_19">
     <!-- theta=2 -->
     <g transform="translate(70.2875 53.154688)scale(0.1 -0.1)">
      <use xlink:href="#DejaVuSans-116"/>
      <use x="39.208984" xlink:href="#DejaVuSans-104"/>
      <use x="102.587891" xlink:href="#DejaVuSans-101"/>
      <use x="164.111328" xlink:href="#DejaVuSans-116"/>
      <use x="203.320312" xlink:href="#DejaVuSans-97"/>
      <use x="264.599609" xlink:href="#DejaVuSans-61"/>
      <use x="348.388672" xlink:href="#DejaVuSans-50"/>
     </g>
    </g>
    <g id="line2d_32">
     <path d="M 42.2875 64.332813 
L 62.2875 64.332813 
" style="fill:none;stroke:#d62728;stroke-linecap:square;stroke-width:1.5;"/>
    </g>
    <g id="line2d_33"/>
    <g id="text_20">
     <!-- theta=2.5 -->
     <g transform="translate(70.2875 67.832813)scale(0.1 -0.1)">
      <defs>
       <path d="M 10.6875 12.40625 
L 21 12.40625 
L 21 0 
L 10.6875 0 
z
" id="DejaVuSans-46"/>
      </defs>
      <use xlink:href="#DejaVuSans-116"/>
      <use x="39.208984" xlink:href="#DejaVuSans-104"/>
      <use x="102.587891" xlink:href="#DejaVuSans-101"/>
      <use x="164.111328" xlink:href="#DejaVuSans-116"/>
      <use x="203.320312" xlink:href="#DejaVuSans-97"/>
      <use x="264.599609" xlink:href="#DejaVuSans-61"/>
      <use x="348.388672" xlink:href="#DejaVuSans-50"/>
      <use x="412.011719" xlink:href="#DejaVuSans-46"/>
      <use x="443.798828" xlink:href="#DejaVuSans-53"/>
     </g>
    </g>
   </g>
  </g>
 </g>
 <defs>
  <clipPath id="pea9eeeed09">
   <rect height="380.52" width="669.6" x="33.2875" y="7.2"/>
  </clipPath>
 </defs>
</svg>